<svg xmlns="http://www.w3.org/2000/svg" xmlns:xlink="http://www.w3.org/1999/xlink" contentStyleType="text/css" height="555px" preserveAspectRatio="none" style="width:788px;height:555px;background:#FFFFFF;" version="1.1" viewBox="0 0 788 555" width="788px" zoomAndPan="magnify"><defs/><g><rect fill="none" height="21.1992" style="stroke:none;stroke-width:1.0;" width="755" x="15" y="12.2969"/><ellipse cx="222.25" cy="48.4961" fill="#222222" rx="10" ry="10" style="stroke:#222222;stroke-width:1.0;"/><rect fill="#F1F1F1" height="34.1328" rx="12.5" ry="12.5" style="stroke:#181818;stroke-width:0.5;" width="94" x="175.25" y="78.4961"/><text fill="#000000" font-family="sans-serif" font-size="12" lengthAdjust="spacing" textLength="74" x="185.25" y="100.0977">Check Cache</text><polygon fill="#F1F1F1" points="194.25,132.6289,250.25,132.6289,262.25,144.6289,250.25,156.6289,194.25,156.6289,182.25,144.6289,194.25,132.6289" style="stroke:#181818;stroke-width:0.5;"/><text fill="#000000" font-family="sans-serif" font-size="11" lengthAdjust="spacing" textLength="56" x="194.25" y="148.7861">Cache Hit?</text><text fill="#000000" font-family="sans-serif" font-size="11" lengthAdjust="spacing" textLength="18" x="164.25" y="142.3086">yes</text><text fill="#000000" font-family="sans-serif" font-size="11" lengthAdjust="spacing" textLength="14" x="262.25" y="142.3086">no</text><rect fill="#F1F1F1" height="34.1328" rx="12.5" ry="12.5" style="stroke:#181818;stroke-width:0.5;" width="193" x="21" y="166.6289"/><text fill="#000000" font-family="sans-serif" font-size="12" lengthAdjust="spacing" textLength="173" x="31" y="188.2305">Retrieve Pain.001 from Cache</text><rect fill="#F1F1F1" height="34.1328" rx="12.5" ry="12.5" style="stroke:#181818;stroke-width:0.5;" width="186" x="234" y="166.6289"/><text fill="#000000" font-family="sans-serif" font-size="12" lengthAdjust="spacing" textLength="166" x="244" y="188.2305">Get Pain.001 from Database</text><rect fill="#F1F1F1" height="34.1328" rx="12.5" ry="12.5" style="stroke:#181818;stroke-width:0.5;" width="111" x="271.5" y="220.7617"/><text fill="#000000" font-family="sans-serif" font-size="12" lengthAdjust="spacing" textLength="91" x="281.5" y="242.3633">Cache Pain.001</text><polygon fill="#F1F1F1" points="222.25,260.8945,234.25,272.8945,222.25,284.8945,210.25,272.8945,222.25,260.8945" style="stroke:#181818;stroke-width:0.5;"/><line style="stroke:#000000;stroke-width:1.5;" x1="15" x2="15" y1="12.2969" y2="543.4258"/><rect fill="#F1F1F1" height="34.1328" rx="12.5" ry="12.5" style="stroke:#181818;stroke-width:0.5;" width="163" x="462.5" y="304.8945"/><text fill="#000000" font-family="sans-serif" font-size="12" lengthAdjust="spacing" textLength="143" x="472.5" y="326.4961">Insert TransactionHistory</text><rect fill="#F1F1F1" height="34.1328" rx="12.5" ry="12.5" style="stroke:#181818;stroke-width:0.5;" width="228" x="430" y="359.0273"/><text fill="#000000" font-family="sans-serif" font-size="12" lengthAdjust="spacing" textLength="208" x="440" y="380.6289">Insert Creditor and Debtor Accounts</text><rect fill="#F1F1F1" height="34.1328" rx="12.5" ry="12.5" style="stroke:#181818;stroke-width:0.5;" width="191" x="448.5" y="413.1602"/><text fill="#000000" font-family="sans-serif" font-size="12" lengthAdjust="spacing" textLength="171" x="458.5" y="434.7617">Save Transaction Relationship</text><line style="stroke:#000000;stroke-width:1.5;" x1="424" x2="424" y1="12.2969" y2="543.4258"/><rect fill="#F1F1F1" height="34.1328" rx="12.5" ry="12.5" style="stroke:#181818;stroke-width:0.5;" width="96" x="668" y="467.293"/><text fill="#000000" font-family="sans-serif" font-size="12" lengthAdjust="spacing" textLength="76" x="678" y="488.8945">Send to Event-director</text><ellipse cx="716" cy="532.4258" fill="none" rx="11" ry="11" style="stroke:#222222;stroke-width:1.0;"/><ellipse cx="716" cy="532.4258" fill="#222222" rx="6" ry="6" style="stroke:#222222;stroke-width:1.0;"/><line style="stroke:#000000;stroke-width:1.5;" x1="662" x2="662" y1="12.2969" y2="543.4258"/><line style="stroke:#000000;stroke-width:1.5;" x1="768" x2="768" y1="12.2969" y2="543.4258"/><line style="stroke:#181818;stroke-width:1.0;" x1="222.25" x2="222.25" y1="58.4961" y2="78.4961"/><polygon fill="#181818" points="218.25,68.4961,222.25,78.4961,226.25,68.4961,222.25,72.4961" style="stroke:#181818;stroke-width:1.0;"/><line style="stroke:#181818;stroke-width:1.0;" x1="327" x2="327" y1="200.7617" y2="220.7617"/><polygon fill="#181818" points="323,210.7617,327,220.7617,331,210.7617,327,214.7617" style="stroke:#181818;stroke-width:1.0;"/><line style="stroke:#181818;stroke-width:1.0;" x1="182.25" x2="117.5" y1="144.6289" y2="144.6289"/><line style="stroke:#181818;stroke-width:1.0;" x1="117.5" x2="117.5" y1="144.6289" y2="166.6289"/><polygon fill="#181818" points="113.5,156.6289,117.5,166.6289,121.5,156.6289,117.5,160.6289" style="stroke:#181818;stroke-width:1.0;"/><line style="stroke:#181818;stroke-width:1.0;" x1="262.25" x2="327" y1="144.6289" y2="144.6289"/><line style="stroke:#181818;stroke-width:1.0;" x1="327" x2="327" y1="144.6289" y2="166.6289"/><polygon fill="#181818" points="323,156.6289,327,166.6289,331,156.6289,327,160.6289" style="stroke:#181818;stroke-width:1.0;"/><line style="stroke:#181818;stroke-width:1.0;" x1="117.5" x2="117.5" y1="200.7617" y2="272.8945"/><line style="stroke:#181818;stroke-width:1.0;" x1="117.5" x2="210.25" y1="272.8945" y2="272.8945"/><polygon fill="#181818" points="200.25,268.8945,210.25,272.8945,200.25,276.8945,204.25,272.8945" style="stroke:#181818;stroke-width:1.0;"/><line style="stroke:#181818;stroke-width:1.0;" x1="327" x2="327" y1="254.8945" y2="272.8945"/><line style="stroke:#181818;stroke-width:1.0;" x1="327" x2="234.25" y1="272.8945" y2="272.8945"/><polygon fill="#181818" points="244.25,268.8945,234.25,272.8945,244.25,276.8945,240.25,272.8945" style="stroke:#181818;stroke-width:1.0;"/><line style="stroke:#181818;stroke-width:1.0;" x1="222.25" x2="222.25" y1="112.6289" y2="132.6289"/><polygon fill="#181818" points="218.25,122.6289,222.25,132.6289,226.25,122.6289,222.25,126.6289" style="stroke:#181818;stroke-width:1.0;"/><line style="stroke:#181818;stroke-width:1.0;" x1="544" x2="544" y1="339.0273" y2="359.0273"/><polygon fill="#181818" points="540,349.0273,544,359.0273,548,349.0273,544,353.0273" style="stroke:#181818;stroke-width:1.0;"/><line style="stroke:#181818;stroke-width:1.0;" x1="544" x2="544" y1="393.1602" y2="413.1602"/><polygon fill="#181818" points="540,403.1602,544,413.1602,548,403.1602,544,407.1602" style="stroke:#181818;stroke-width:1.0;"/><line style="stroke:#181818;stroke-width:1.0;" x1="716" x2="716" y1="501.4258" y2="521.4258"/><polygon fill="#181818" points="712,511.4258,716,521.4258,720,511.4258,716,515.4258" style="stroke:#181818;stroke-width:1.0;"/><line style="stroke:#181818;stroke-width:1.0;" x1="222.25" x2="222.25" y1="284.8945" y2="289.8945"/><line style="stroke:#181818;stroke-width:1.0;" x1="222.25" x2="544" y1="289.8945" y2="289.8945"/><line style="stroke:#181818;stroke-width:1.0;" x1="544" x2="544" y1="289.8945" y2="304.8945"/><polygon fill="#181818" points="540,294.8945,544,304.8945,548,294.8945,544,298.8945" style="stroke:#181818;stroke-width:1.0;"/><line style="stroke:#181818;stroke-width:1.0;" x1="544" x2="544" y1="447.293" y2="452.293"/><line style="stroke:#181818;stroke-width:1.0;" x1="544" x2="716" y1="452.293" y2="452.293"/><line style="stroke:#181818;stroke-width:1.0;" x1="716" x2="716" y1="452.293" y2="467.293"/><polygon fill="#181818" points="712,457.293,716,467.293,720,457.293,716,461.293" style="stroke:#181818;stroke-width:1.0;"/><text fill="#000000" font-family="sans-serif" font-size="18" lengthAdjust="spacing" textLength="226" x="106.5" y="29.6992">Pain013 Cache Interaction</text><text fill="#000000" font-family="sans-serif" font-size="18" lengthAdjust="spacing" textLength="80" x="503" y="29.6992">Database</text><text fill="#000000" font-family="sans-serif" font-size="18" lengthAdjust="spacing" textLength="32" x="699" y="29.6992">End</text></g><desc>
</desc></svg>